<svg width="271" height="271" viewBox="0 0 271 271" fill="none" xmlns="http://www.w3.org/2000/svg">
<g filter="url(#filter0_di_1_14085)">
<rect x="86.3" y="59.3" width="98" height="98" rx="49" fill="#8C3FFF" fill-opacity="0.3" shape-rendering="crispEdges"/>
<rect x="86.3" y="59.3" width="98" height="98" rx="49" fill="url(#paint0_radial_1_14085)" fill-opacity="0.6" style="mix-blend-mode:plus-lighter" shape-rendering="crispEdges"/>
<rect x="86.3" y="59.3" width="98" height="98" rx="49" fill="url(#paint1_radial_1_14085)" fill-opacity="0.3" style="mix-blend-mode:plus-lighter" shape-rendering="crispEdges"/>
</g>
<g clip-path="url(#clip0_1_14085)">
<g filter="url(#filter1_di_1_14085)">
<path d="M156.199 109.479L126.169 129.499C125.518 129.933 124.639 129.757 124.205 129.106C124.05 128.873 123.967 128.599 123.967 128.32V88.2807C123.967 87.4983 124.601 86.864 125.383 86.864C125.663 86.864 125.937 86.9468 126.169 87.1019L156.199 107.121C156.85 107.555 157.026 108.435 156.591 109.086C156.488 109.242 156.354 109.375 156.199 109.479Z" fill="#C4AEE6"/>
<path d="M156.199 109.479L126.169 129.499C125.518 129.933 124.639 129.757 124.205 129.106C124.05 128.873 123.967 128.599 123.967 128.32V88.2807C123.967 87.4983 124.601 86.864 125.383 86.864C125.663 86.864 125.937 86.9468 126.169 87.1019L156.199 107.121C156.85 107.555 157.026 108.435 156.591 109.086C156.488 109.242 156.354 109.375 156.199 109.479Z" fill="url(#paint2_radial_1_14085)" fill-opacity="0.6" style="mix-blend-mode:plus-lighter"/>
<path d="M156.199 109.479L126.169 129.499C125.518 129.933 124.639 129.757 124.205 129.106C124.05 128.873 123.967 128.599 123.967 128.32V88.2807C123.967 87.4983 124.601 86.864 125.383 86.864C125.663 86.864 125.937 86.9468 126.169 87.1019L156.199 107.121C156.85 107.555 157.026 108.435 156.591 109.086C156.488 109.242 156.354 109.375 156.199 109.479Z" fill="url(#paint3_radial_1_14085)" fill-opacity="0.3" style="mix-blend-mode:plus-lighter"/>
</g>
</g>
<defs>
<filter id="filter0_di_1_14085" x="4.57764e-05" y="4.57764e-05" width="270.6" height="270.6" filterUnits="userSpaceOnUse" color-interpolation-filters="sRGB">
<feFlood flood-opacity="0" result="BackgroundImageFix"/>
<feColorMatrix in="SourceAlpha" type="matrix" values="0 0 0 0 0 0 0 0 0 0 0 0 0 0 0 0 0 0 127 0" result="hardAlpha"/>
<feOffset dy="27"/>
<feGaussianBlur stdDeviation="43.15"/>
<feComposite in2="hardAlpha" operator="out"/>
<feColorMatrix type="matrix" values="0 0 0 0 0 0 0 0 0 0 0 0 0 0 0 0 0 0 0.65 0"/>
<feBlend mode="overlay" in2="BackgroundImageFix" result="effect1_dropShadow_1_14085"/>
<feBlend mode="normal" in="SourceGraphic" in2="effect1_dropShadow_1_14085" result="shape"/>
<feColorMatrix in="SourceAlpha" type="matrix" values="0 0 0 0 0 0 0 0 0 0 0 0 0 0 0 0 0 0 127 0" result="hardAlpha"/>
<feOffset/>
<feGaussianBlur stdDeviation="19.7"/>
<feComposite in2="hardAlpha" operator="arithmetic" k2="-1" k3="1"/>
<feColorMatrix type="matrix" values="0 0 0 0 1 0 0 0 0 1 0 0 0 0 1 0 0 0 0.54 0"/>
<feBlend mode="normal" in2="shape" result="effect2_innerShadow_1_14085"/>
</filter>
<filter id="filter1_di_1_14085" x="37.6668" y="27.564" width="205.463" height="215.473" filterUnits="userSpaceOnUse" color-interpolation-filters="sRGB">
<feFlood flood-opacity="0" result="BackgroundImageFix"/>
<feColorMatrix in="SourceAlpha" type="matrix" values="0 0 0 0 0 0 0 0 0 0 0 0 0 0 0 0 0 0 127 0" result="hardAlpha"/>
<feOffset dy="27"/>
<feGaussianBlur stdDeviation="43.15"/>
<feComposite in2="hardAlpha" operator="out"/>
<feColorMatrix type="matrix" values="0 0 0 0 0 0 0 0 0 0 0 0 0 0 0 0 0 0 0.65 0"/>
<feBlend mode="overlay" in2="BackgroundImageFix" result="effect1_dropShadow_1_14085"/>
<feBlend mode="normal" in="SourceGraphic" in2="effect1_dropShadow_1_14085" result="shape"/>
<feColorMatrix in="SourceAlpha" type="matrix" values="0 0 0 0 0 0 0 0 0 0 0 0 0 0 0 0 0 0 127 0" result="hardAlpha"/>
<feOffset/>
<feGaussianBlur stdDeviation="19.7"/>
<feComposite in2="hardAlpha" operator="arithmetic" k2="-1" k3="1"/>
<feColorMatrix type="matrix" values="0 0 0 0 1 0 0 0 0 1 0 0 0 0 1 0 0 0 0.54 0"/>
<feBlend mode="normal" in2="shape" result="effect2_innerShadow_1_14085"/>
</filter>
<radialGradient id="paint0_radial_1_14085" cx="0" cy="0" r="1" gradientTransform="matrix(-3.77189 -130.745 63.1163 -84.3869 181.878 170.728)" gradientUnits="userSpaceOnUse">
<stop stop-color="#FFBB4D"/>
<stop offset="1" stop-color="#8C3FFF" stop-opacity="0"/>
</radialGradient>
<radialGradient id="paint1_radial_1_14085" cx="0" cy="0" r="1" gradientTransform="matrix(-3.77189 -130.745 63.1163 -84.3869 181.878 170.728)" gradientUnits="userSpaceOnUse">
<stop stop-color="#FFBB4D"/>
<stop offset="1" stop-color="#8C3FFF" stop-opacity="0"/>
</radialGradient>
<radialGradient id="paint2_radial_1_14085" cx="0" cy="0" r="1" gradientTransform="matrix(-1.26485 -57.1979 21.1651 -36.9172 156.017 135.611)" gradientUnits="userSpaceOnUse">
<stop stop-color="#FFBB4D"/>
<stop offset="1" stop-color="#8C3FFF" stop-opacity="0"/>
</radialGradient>
<radialGradient id="paint3_radial_1_14085" cx="0" cy="0" r="1" gradientTransform="matrix(-1.26485 -57.1979 21.1651 -36.9172 156.017 135.611)" gradientUnits="userSpaceOnUse">
<stop stop-color="#FFBB4D"/>
<stop offset="1" stop-color="#8C3FFF" stop-opacity="0"/>
</radialGradient>
<clipPath id="clip0_1_14085">
<rect width="68" height="68" fill="white" transform="translate(101.3 74.3)"/>
</clipPath>
</defs>
</svg>
