<svg width="38" height="38" viewBox="0 0 38 38" fill="none" xmlns="http://www.w3.org/2000/svg">
<rect width="38" height="38" rx="12" fill="#0A0A0B"/>
<path d="M19 8L28.5 13.5V24.5L19 30L9.5 24.5V13.5L19 8ZM19 10.311L11.5 14.6531V23.3469L19 27.689L26.5 23.3469V14.6531L19 10.311ZM19 23C16.7909 23 15 21.2091 15 19C15 16.7909 16.7909 15 19 15C21.2091 15 23 16.7909 23 19C23 21.2091 21.2091 23 19 23ZM19 21C20.1046 21 21 20.1046 21 19C21 17.8954 20.1046 17 19 17C17.8954 17 17 17.8954 17 19C17 20.1046 17.8954 21 19 21Z" fill="#8C3FFF"/>
<path d="M19 8L28.5 13.5V24.5L19 30L9.5 24.5V13.5L19 8ZM19 10.311L11.5 14.6531V23.3469L19 27.689L26.5 23.3469V14.6531L19 10.311ZM19 23C16.7909 23 15 21.2091 15 19C15 16.7909 16.7909 15 19 15C21.2091 15 23 16.7909 23 19C23 21.2091 21.2091 23 19 23ZM19 21C20.1046 21 21 20.1046 21 19C21 17.8954 20.1046 17 19 17C17.8954 17 17 17.8954 17 19C17 20.1046 17.8954 21 19 21Z" fill="url(#paint0_radial_1_13681)" fill-opacity="0.6" style="mix-blend-mode:plus-lighter"/>
<path d="M19 8L28.5 13.5V24.5L19 30L9.5 24.5V13.5L19 8ZM19 10.311L11.5 14.6531V23.3469L19 27.689L26.5 23.3469V14.6531L19 10.311ZM19 23C16.7909 23 15 21.2091 15 19C15 16.7909 16.7909 15 19 15C21.2091 15 23 16.7909 23 19C23 21.2091 21.2091 23 19 23ZM19 21C20.1046 21 21 20.1046 21 19C21 17.8954 20.1046 17 19 17C17.8954 17 17 17.8954 17 19C17 20.1046 17.8954 21 19 21Z" fill="url(#paint1_radial_1_13681)" fill-opacity="0.3" style="mix-blend-mode:plus-lighter"/>
<defs>
<radialGradient id="paint0_radial_1_13681" cx="0" cy="0" r="1" gradientTransform="matrix(-0.731286 -29.351 12.2368 -18.944 28.0304 33.0144)" gradientUnits="userSpaceOnUse">
<stop stop-color="#FFBB4D"/>
<stop offset="1" stop-color="#8C3FFF" stop-opacity="0"/>
</radialGradient>
<radialGradient id="paint1_radial_1_13681" cx="0" cy="0" r="1" gradientTransform="matrix(-0.731286 -29.351 12.2368 -18.944 28.0304 33.0144)" gradientUnits="userSpaceOnUse">
<stop stop-color="#FFBB4D"/>
<stop offset="1" stop-color="#8C3FFF" stop-opacity="0"/>
</radialGradient>
</defs>
</svg>
