<svg width="16" height="16" viewBox="0 0 16 16" fill="none" xmlns="http://www.w3.org/2000/svg">
<rect width="16" height="16" rx="4" fill="black" fill-opacity="0.5"/>
<path d="M9.6119 9.75389L8.50555 12.079C8.43435 12.2286 8.25535 12.2921 8.10575 12.2209C8.0724 12.2051 8.04225 12.1832 8.01685 12.1564L6.24614 10.287C6.19874 10.2369 6.13556 10.2047 6.06722 10.1958L3.51408 9.86209C3.34979 9.84064 3.23402 9.69004 3.25549 9.52574C3.26028 9.48914 3.27179 9.45369 3.28945 9.42124L4.52015 7.15954C4.5531 7.09899 4.56419 7.02894 4.55157 6.9612L4.08 4.42989C4.04965 4.26701 4.1571 4.11037 4.31998 4.08002C4.3563 4.07326 4.39355 4.07326 4.42987 4.08002L6.96118 4.55159C7.02895 4.56421 7.099 4.55312 7.1595 4.52018L9.4212 3.28947C9.56675 3.21028 9.74895 3.26406 9.8281 3.40959C9.8458 3.44204 9.8573 3.47747 9.86205 3.5141L10.1958 6.06725C10.2047 6.13559 10.2369 6.19877 10.2869 6.24616L12.1563 8.01684C12.2766 8.13079 12.2818 8.32069 12.1678 8.44099C12.1424 8.46779 12.1123 8.48969 12.0789 8.50554L9.7539 9.61194C9.69165 9.64154 9.6415 9.69169 9.6119 9.75389ZM10.0103 10.7174L10.7174 10.0103L12.8387 12.1316L12.1316 12.8387L10.0103 10.7174Z" fill="#B0F862"/>
</svg>
