<svg width="20" height="20" viewBox="0 0 20 20" fill="none" xmlns="http://www.w3.org/2000/svg">
<path d="M9.16675 1.66635C9.38666 1.66635 9.60425 1.67788 9.81942 1.69646C9.53541 2.1952 9.33508 2.74761 9.23675 3.33465C9.21341 3.33437 9.19008 3.33302 9.16675 3.33302C5.94394 3.33302 3.33359 5.94359 3.33341 9.1664C3.33341 12.3893 5.94383 14.9997 9.16675 14.9997C10.7464 14.9997 12.1791 14.3723 13.2292 13.3534L13.3537 13.2289C14.3726 12.1787 15.0001 10.7459 15.0001 9.1664C15.0001 9.14281 14.9979 9.11906 14.9977 9.09556C15.5849 8.99731 16.1369 8.7969 16.6358 8.5129C16.6544 8.72823 16.6667 8.94623 16.6667 9.1664C16.6667 10.9362 16.0527 12.5641 15.0261 13.8474L18.5947 17.4159L17.4162 18.5943L13.8477 15.0257C12.5645 16.0525 10.9367 16.6664 9.16675 16.6664C5.02675 16.6664 1.66675 13.3064 1.66675 9.1664C1.66692 5.0265 5.02686 1.66635 9.16675 1.66635ZM13.7745 1.09913C13.9217 0.744306 14.4119 0.744296 14.559 1.09913L14.7697 1.60857C15.1297 2.47756 15.8014 3.1715 16.6456 3.54705L17.2437 3.81316C17.5856 3.96551 17.5856 4.46318 17.2437 4.61557L16.6106 4.89715C15.7875 5.26321 15.1279 5.93257 14.7617 6.77296L14.5557 7.24416C14.4054 7.58927 13.9282 7.58927 13.7777 7.24416L13.5727 6.77296C13.2064 5.93244 12.5461 5.26325 11.7229 4.89715L11.0897 4.61557C10.7479 4.46319 10.7479 3.9655 11.0897 3.81316L11.6879 3.54705C12.5322 3.1715 13.2038 2.47758 13.5637 1.60857L13.7745 1.09913Z" fill="currentColor"/>
</svg>
